<?xml version="1.0" encoding="UTF-8" standalone="no"?>
<!DOCTYPE svg PUBLIC "-//W3C//DTD SVG 1.1//EN" "http://www.w3.org/Graphics/SVG/1.1/DTD/svg11.dtd">
<!-- Created with Vectornator (http://vectornator.io/) -->
<svg height="100%" stroke-miterlimit="10" style="fill-rule:nonzero;clip-rule:evenodd;stroke-linecap:round;stroke-linejoin:round;" version="1.1" viewBox="0 0 132 163" width="100%" xml:space="preserve" xmlns="http://www.w3.org/2000/svg" xmlns:vectornator="http://vectornator.io" xmlns:xlink="http://www.w3.org/1999/xlink">
<defs/>
<g id="Untitled" vectornator:layerName="Untitled">
<g opacity="1">
<clipPath id="ClipPath">
<path d="M0 0L131.528 0L131.528 0L131.528 162.38L131.528 162.38L0 162.38L0 162.38L0 0L0 0Z"/>
</clipPath>
<g clip-path="url(#ClipPath)">
<g opacity="1">
<path d="M82.3896 92.3996L82.3896 92.1528C77.93 92.1528 71.5483 90.9958 67.3368 92.3996C65.2687 92.3996 40.2583 96.6547 40.1925 96.3478C39.8996 94.9805 40.4668 93.524 40.1925 92.1528C40.4393 92.6463 40.4393 92.6463 40.6861 93.1399C41.5868 92.2392 41.1796 92.879 41.1796 90.919C41.1796 87.5465 41.1796 84.174 41.1796 80.8016C41.1796 79.5677 41.1796 79.5677 41.1796 78.3339C40.6861 78.3339 40.6861 78.3339 40.1925 78.3339C40.1925 76.8953 38.9801 73.8495 39.4522 72.9051C37.7877 71.6567 38.6649 72.5243 37.2313 69.9439C37.4781 69.6971 37.4781 69.6971 37.7249 69.4504C36.8683 67.7371 37.5081 68.1443 36.2443 67.723C36.2443 66.5533 35.504 66.9185 35.504 65.7489C35.1338 65.6255 35.1338 65.6255 34.7637 65.5021C38.6756 60.2862 51.9607 60.4549 57.2194 60.5668C59.0008 60.6047 63.9834 60.8293 63.1418 63.7747C62.6216 65.5955 59.3585 63.9514 57.4662 64.0215C52.906 64.1904 45.1079 65.2979 40.9328 67.4762C39.3427 68.3059 40.901 69.4795 41.1796 69.9439C45.0911 76.4629 45.3746 83.9183 45.3746 90.919C53.1943 90.919 52.9801 90.4197 61.4144 90.1787C67.5825 90.2973 73.7586 90.4466 79.9219 90.1787C82.2757 90.1787 81.12 89.9519 83.3766 90.919C77.2695 90.919 79.7034 90.4801 75.9737 91.4125C71.7786 91.5359 71.7786 91.5359 67.5836 91.6593C73.1358 91.6593 73.1358 91.6593 78.6881 91.6593C79.9328 91.6593 82.3896 92.1528 82.3896 92.3996Z" fill="#cf6b1b" fill-rule="nonzero" opacity="1" stroke="#cf6b1b" stroke-linecap="round" stroke-linejoin="round" stroke-width="1"/>
<path d="M45.6214 21.0843C48.1126 21.4995 54.354 22.6753 53.5179 26.0196C35.1736 26.0196 25.5375 23.3073 22.6721 45.5141C22.1786 45.2673 22.1786 45.2673 21.6851 45.0206C22.0552 45.0206 22.0552 45.0206 22.4254 45.0206C21.8085 44.6504 21.8085 44.6504 21.1915 44.2803C21.5098 43.3254 20.9448 42.0666 20.9448 40.8255C20.5746 40.7022 20.5746 40.7022 20.2045 40.5788C20.2045 24.8532 31.1703 21.3311 45.6214 21.0843Z" fill="#ba6018" fill-rule="nonzero" opacity="1" stroke="#ba6018" stroke-linecap="round" stroke-linejoin="round" stroke-width="1"/>
<path d="M14.2821 41.0723C14.6693 41.1691 16.277 41.3506 16.0095 42.3061C13.4886 51.309 9.74874 57.6594 17.9836 65.5021C20.2286 67.6402 19.2539 67.4762 20.9448 67.4762C21.877 70.2728 25.8801 68.7054 25.8801 72.1648C22.67 71.4514 7.59463 65.6626 10.3338 61.5539C9.71691 61.1837 9.71691 61.1837 9.1 60.8136C10.2233 57.4436 7.74106 53.7354 8.11293 50.2026C8.413 47.3519 12.3205 43.1768 14.2821 41.0723Z" fill="#ba6018" fill-rule="nonzero" opacity="1" stroke="#ba6018" stroke-linecap="round" stroke-linejoin="round" stroke-width="1"/>
<path d="M108.3 39.5917C128.717 41.8603 127.04 68.2407 104.105 67.4762C108.7 66.9018 110.915 64.9691 114.963 61.5539C125.463 52.6946 112.395 45.6272 108.3 39.5917Z" fill="#c6671a" fill-rule="nonzero" opacity="1" stroke="#c6671a" stroke-linecap="round" stroke-linejoin="round" stroke-width="1"/>
<path d="M82.6363 18.3699C87.3189 18.3699 100.897 24.6989 100.897 30.4614C94.9369 28.0773 91.1578 23.3742 84.1169 22.3181C79.7107 21.6572 73.0041 21.7104 68.3239 22.8117C67.0636 23.1082 63.0596 25.3616 62.1547 23.5519C63.0041 22.8724 63.5697 22.0386 64.6224 22.5649C65.4021 20.2257 71.2684 19.9682 73.506 18.3699C73.506 18.6166 73.506 18.6166 73.506 18.8634C73.506 19.1102 73.506 19.1102 73.506 19.3569C78.0712 19.3569 78.0712 19.3569 82.6363 19.3569C82.6363 19.1102 82.6363 19.1102 82.6363 18.8634C82.6363 18.6166 82.6363 18.6166 82.6363 18.3699Z" fill="#b6601a" fill-rule="nonzero" opacity="1" stroke="#b6601a" stroke-linecap="round" stroke-linejoin="round" stroke-width="1"/>
<path d="M61.4144 128.921C63.4774 130.984 66.8453 130.005 69.0642 128.674C73.8025 127.32 78.7741 127.238 83.6234 127.44C83.9913 125.233 81.3741 123.468 79.6751 122.011C72.4199 115.793 63.2456 119.297 54.9985 119.297C54.9985 119.667 54.9985 119.667 54.9985 120.037C53.7578 120.215 51.6981 120.254 52.2841 122.011C50.1055 122.375 51.2106 121.967 49.0761 123.492C49.1995 123.862 49.1995 123.862 49.3229 124.232C46.9126 124.232 46.5467 125.96 47.8423 127.687C52.8476 126.575 56.7795 127.891 61.4144 128.921Z" fill="#f5200a" fill-rule="nonzero" opacity="1" stroke="#f5200a" stroke-linecap="round" stroke-linejoin="round" stroke-width="1"/>
<path d="M47.8423 127.687C47.7189 127.81 47.7189 127.81 47.5955 127.934C50.1644 132.215 53.6246 135.175 57.2194 138.051C60.0209 138.051 63.2785 136.991 65.6095 138.545C75.982 138.545 74.0386 137.817 80.1687 130.155C82.5195 127.216 82.3896 129.56 82.3896 127.934C77.6309 127.934 73.8229 128.674 69.0642 128.674C66.8453 130.005 63.4774 130.984 61.4144 128.921C56.7795 127.891 52.8476 126.575 47.8423 127.687Z" fill="#b90600" fill-rule="nonzero" opacity="1" stroke="#b90600" stroke-linecap="round" stroke-linejoin="round" stroke-width="1"/>
<path d="M95.4682 68.9568C103.345 68.9568 94.2344 82.4739 94.2344 87.4643C89.9414 86.0333 94.1456 72.2158 95.4682 68.9568Z" fill="#c3661b" fill-rule="nonzero" opacity="1" stroke="#c3661b" stroke-linecap="round" stroke-linejoin="round" stroke-width="1"/>
<path d="M78.6881 91.6593C79.9328 91.6593 82.3896 92.1528 82.3896 92.1528L82.3896 92.3996C84.2837 92.3996 84.7533 93.1399 86.5846 93.1399C86.5846 91.2667 84.8336 91.1271 83.3766 90.919C77.2695 90.919 79.7034 90.4801 75.9737 91.4125C76.7229 91.4125 78.1497 91.1209 78.6881 91.6593Z" fill="#a75716" fill-rule="nonzero" opacity="1" stroke="#a75716" stroke-linecap="round" stroke-linejoin="round" stroke-width="1"/>
<path d="M83.6234 127.44C83.6234 127.564 83.6234 127.564 83.6234 127.687C83.2255 127.82 82.3896 127.934 82.3896 127.934C77.6309 127.934 73.8229 128.674 69.0642 128.674C73.8025 127.32 78.7741 127.238 83.6234 127.44Z" fill="#bc0700" fill-rule="nonzero" opacity="1" stroke="#bc0700" stroke-linecap="round" stroke-linejoin="round" stroke-width="1"/>
<path d="M40.9328 90.919C40.9328 90.919 40.9328 89.7674 40.9328 89.1916C40.8186 86.4486 40.814 83.5571 39.699 81.0483C39.699 85.8603 39.699 85.8603 39.699 90.6722C40.3159 90.7956 40.3159 90.7956 40.9328 90.919Z" fill="#4e280a" fill-rule="nonzero" opacity="1" stroke="#4e280a" stroke-linecap="round" stroke-linejoin="round" stroke-width="1"/>
<path d="M82.3896 92.3996L82.3896 92.1528C77.93 92.1528 71.5483 90.9958 67.3368 92.3996C72.3544 92.3996 77.372 92.3996 82.3896 92.3996Z" fill="#2f1806" fill-rule="nonzero" opacity="1" stroke="#2f1806" stroke-linecap="round" stroke-linejoin="round" stroke-width="1"/>
<path d="M61.4144 89.9319C67.2546 89.9319 73.0947 89.9319 78.9348 89.9319C78.3677 89.6484 78.6252 89.6851 78.1945 89.6851C73.0125 89.6851 67.8304 89.6851 62.6483 89.6851C62.1423 89.6851 61.7905 89.5559 61.4144 89.9319Z" fill="#b25c17" fill-rule="nonzero" opacity="1" stroke="#b25c17" stroke-linecap="round" stroke-linejoin="round" stroke-width="1"/>
<path d="M73.506 18.3699C73.506 18.6166 73.506 18.6166 73.506 18.8634C73.506 19.1102 73.506 19.1102 73.506 19.3569C78.0712 19.3569 78.0712 19.3569 82.6363 19.3569C82.6363 19.1102 82.6363 19.1102 82.6363 18.8634C82.6363 18.6166 82.6363 18.6166 73.506 18.3699Z" fill="#f38c31" fill-rule="nonzero" opacity="1" stroke="#f38c31" stroke-linecap="round" stroke-linejoin="round" stroke-width="1"/>
<path d="M61.4144 90.1787L61.4144 89.9319C67.2546 89.9319 73.0947 89.9319 78.9348 89.9319C79.4417 89.9319 79.1036 89.9059 79.9219 90.1787C73.7586 90.4466 67.5825 90.2973 61.4144 90.1787Z" fill="#d66f1c" fill-rule="nonzero" opacity="1" stroke="#d66f1c" stroke-linecap="round" stroke-linejoin="round" stroke-width="1"/>
<path d="M78.1945 89.6851C77.5123 89.0029 74.9788 89.4384 73.9995 89.4384C70.2158 89.4384 66.432 89.4384 62.6483 89.4384L62.6483 89.6851C67.8304 89.6851 73.0125 89.6851 78.1945 89.6851Z" fill="#5d300c" fill-rule="nonzero" opacity="1" stroke="#5d300c" stroke-linecap="round" stroke-linejoin="round" stroke-width="1"/>
<path d="M40.9328 90.919L41.1796 90.919C41.1796 87.5465 41.1796 84.174 41.1796 80.8016C40.075 81.9062 40.9328 87.545 40.9328 89.1916C40.9328 89.7674 40.9328 90.919 40.9328 90.919Z" fill="#c9681a" fill-rule="nonzero" opacity="1" stroke="#c9681a" stroke-linecap="round" stroke-linejoin="round" stroke-width="1"/>
<path d="M73.506 18.8634C76.5494 18.8634 79.5929 18.8634 82.6363 18.8634C82.6363 18.6166 82.6363 18.6166 82.6363 18.3699C79.5929 18.3699 76.5494 18.3699 73.506 18.3699C73.506 18.6166 73.506 18.6166 73.506 18.8634Z" fill="#e88933" fill-rule="nonzero" opacity="1" stroke="#e88933" stroke-linecap="round" stroke-linejoin="round" stroke-width="1"/>
<path d="M78.6881 91.6593C73.1358 91.6593 73.1358 91.6593 67.5836 91.6593C71.7786 91.5359 71.7786 91.5359 75.9737 91.4125C76.7229 91.4125 78.1497 91.1209 78.6881 91.6593Z" fill="#b85f18" fill-rule="nonzero" opacity="1" stroke="#b85f18" stroke-linecap="round" stroke-linejoin="round" stroke-width="1"/>
</g>
</g>
</g>
</g>
</svg>
